<svg width="100%" height="100%" id="svg" viewBox="0 0 1440 700" xmlns="http://www.w3.org/2000/svg" class="transition duration-300 ease-in-out delay-150"><defs><linearGradient id="gradient" x1="56%" y1="100%" x2="44%" y2="0%"><stop offset="5%" stop-color="#002bdc44"></stop><stop offset="95%" stop-color="#32ded444"></stop></linearGradient></defs><path d="M 0,700 C 0,700 0,140 0,140 C 110.24880382775123,142.74641148325358 220.49760765550246,145.49282296650716 330,136 C 439.50239234449754,126.50717703349282 548.2583732057415,104.7751196172249 623,116 C 697.7416267942585,127.2248803827751 738.4688995215313,171.40669856459328 830,188 C 921.5311004784687,204.59330143540672 1063.8660287081339,193.59808612440193 1174,181 C 1284.1339712918661,168.40191387559807 1362.066985645933,154.20095693779905 1440,140 C 1440,140 1440,700 1440,700 Z" stroke="none" stroke-width="0" fill="url(#gradient)" class="transition-all duration-300 ease-in-out delay-150 path-0"></path><defs><linearGradient id="gradient" x1="56%" y1="100%" x2="44%" y2="0%"><stop offset="5%" stop-color="#002bdc66"></stop><stop offset="95%" stop-color="#32ded466"></stop></linearGradient></defs><path d="M 0,700 C 0,700 0,280 0,280 C 80.1531100478469,288.78468899521533 160.3062200956938,297.5693779904306 261,287 C 361.6937799043062,276.4306220095694 482.92822966507185,246.50717703349278 591,260 C 699.0717703349281,273.4928229665072 793.980861244019,330.4019138755981 893,329 C 992.019138755981,327.5980861244019 1095.1483253588517,267.88516746411483 1187,250 C 1278.8516746411483,232.11483253588517 1359.4258373205741,256.0574162679426 1440,280 C 1440,280 1440,700 1440,700 Z" stroke="none" stroke-width="0" fill="url(#gradient)" class="transition-all duration-300 ease-in-out delay-150 path-1"></path><defs><linearGradient id="gradient" x1="56%" y1="100%" x2="44%" y2="0%"><stop offset="5%" stop-color="#002bdc88"></stop><stop offset="95%" stop-color="#32ded488"></stop></linearGradient></defs><path d="M 0,700 C 0,700 0,420 0,420 C 90.70813397129183,420.43062200956933 181.41626794258366,420.8612440191387 269,413 C 356.58373205741634,405.1387559808613 441.043062200957,388.9856459330144 548,394 C 654.956937799043,399.0143540669856 784.4114832535886,425.1961722488038 893,434 C 1001.5885167464114,442.8038277511962 1089.311004784689,434.22966507177034 1177,429 C 1264.688995215311,423.77033492822966 1352.3444976076555,421.88516746411483 1440,420 C 1440,420 1440,700 1440,700 Z" stroke="none" stroke-width="0" fill="url(#gradient)" class="transition-all duration-300 ease-in-out delay-150 path-2"></path><defs><linearGradient id="gradient" x1="56%" y1="100%" x2="44%" y2="0%"><stop offset="5%" stop-color="#002bdcff"></stop><stop offset="95%" stop-color="#32ded4ff"></stop></linearGradient></defs><path d="M 0,700 C 0,700 0,560 0,560 C 119.12918660287079,528.7464114832536 238.25837320574158,497.4928229665072 324,515 C 409.7416267942584,532.5071770334928 462.0956937799044,598.7751196172248 547,605 C 631.9043062200956,611.2248803827752 749.3588516746411,557.4066985645933 843,554 C 936.6411483253589,550.5933014354067 1006.4688995215313,597.5980861244019 1102,607 C 1197.5311004784687,616.4019138755981 1318.7655502392345,588.200956937799 1440,560 C 1440,560 1440,700 1440,700 Z" stroke="none" stroke-width="0" fill="url(#gradient)" class="transition-all duration-300 ease-in-out delay-150 path-3"></path></svg>